# xmcd CD database file
# Copyright (C) 1993-1996 Ti Kan
#
# Track frame offsets:
# 150
# 11947
# 24097
# 33772
# 44802
# 54997
# 67187
# 79027
# 90697
# 101912
# 114247
#
# Disc length: 1684 seconds
#
# Revision: 0
# Processed by: cddbd v1.4b41PL1 Copyright (c) Steve Scherf et al.
# Submitted via: inCDius 1.1b5
#
DISCID=8906920b
DTITLE=George Jones - Greatest Country Hits
DYEAR=1900
DGENRE=
TTITLE0=She Thinks I Still Care
TTITLE1=A Girl I Used To Know
TTITLE2=The Race Is On
TTITLE3=Not What I Had In Mind
TTITLE4=Your Heart Turned Left (And I Was On The Right)
TTITLE5=You Comb Her Hair
TTITLE6=Where Does A Little Tear Come From
TTITLE7=Least Of All
TTITLE8=Big Fool Of The Year
TTITLE9=Sometimes You Just Can't Win
TTITLE10=We Must Have Been Out Of Our Minds
EXTD=
EXTT0=
EXTT1=
EXTT2=
EXTT3=
EXTT4=
EXTT5=
EXTT6=
EXTT7=
EXTT8=
EXTT9=
EXTT10=With Melba Montgomery
PLAYORDER=
